<svg xmlns="http://www.w3.org/2000/svg" shape-rendering="crispEdges">
  <symbol id="bluesky-icon" viewBox="0 0 16 17">
    <!-- Simplified pixelated version -->
    <path fill="#08060d" d="M2 2h12v2h-2v2h-8v-2h-2zM4 6h8v2h-2v2h-4v-2h-2zM6 10h4v2h2v2h-8v-2h2z" />
  </symbol>
  <symbol id="discord-icon" viewBox="0 0 20 19">
    <!-- Boxy version -->
    <path fill="#08060d" d="M4 2h12v2h2v10h-2v2h-2v-2h-8v2h-2v-2h-2v-10h2zM6 6h2v2h-2zM12 6h2v2h-2z" />
  </symbol>
  <symbol id="documentation-icon" viewBox="0 0 16 16">
    <!-- Pixelated document -->
    <rect x="2" y="1" width="12" height="14" fill="none" stroke="#aa3bff" stroke-width="1" />
    <rect x="4" y="4" width="8" height="1" fill="#aa3bff" />
    <rect x="4" y="7" width="8" height="1" fill="#aa3bff" />
    <rect x="4" y="10" width="5" height="1" fill="#aa3bff" />
  </symbol>
  <symbol id="github-icon" viewBox="0 0 16 16">
    <!-- Blocky octocat -->
    <path fill="#08060d" d="M6 1h4v1h2v2h1v4h-1v2h-1v1h-1v1H6v-1H5v-1H4v-2H3v-4h1V2h2z" />
  </symbol>
  <symbol id="social-icon" viewBox="0 0 16 16">
    <!-- Pixelated user group -->
    <rect x="2" y="2" width="4" height="4" fill="#aa3bff" />
    <rect x="1" y="7" width="6" height="3" fill="#aa3bff" />
    <rect x="10" y="4" width="4" height="4" fill="#aa3bff" />
    <rect x="9" y="9" width="6" height="3" fill="#aa3bff" />
  </symbol>
  <symbol id="x-icon" viewBox="0 0 16 16">
    <!-- Blocky X -->
    <path fill="#08060d" d="M1 1h3l4 5 4-5h3l-5 6 5 8h-3l-4-5-4 5h-3l5-8z" />
  </symbol>
</svg>
